<svg xmlns="http://www.w3.org/2000/svg" version="1.1" viewBox="40 170 1140 930" aria-hidden="true"><rect x="40" y="170" width="1140" height="930" fill="#F6F7FA"/><style>.sg-star polygon{fill:none;stroke:#B3BBCB;stroke-width:1.8}.sg-axes line{stroke:#E1E5EC;stroke-width:1.4}.sg-used line{stroke:#7C879E;stroke-width:2;stroke-dasharray:12 9}.sg-c{fill:none;stroke-width:2.5}.sg-under{stroke:#AFBBD3}.sg-over{stroke:#fff;stroke-opacity:.5}.sg-cen circle{fill:#fff}.sg-cen circle.is-hole{fill:#8C97AE}.sg-side{fill:none;stroke:#AFBBD3;stroke-width:2.5}.sg-spiral{fill:none;stroke:#E0A43A;stroke-width:3.5}.sg-run{fill:none;stroke:#E0A43A;stroke-width:16;stroke-linecap:round;stroke-linejoin:round}.sg-eye{fill:#E0A43A;stroke:#fff;stroke-width:3}.sg-lab{font-family:Geist,sans-serif;font-size:40px;font-weight:700;fill:#fff;text-anchor:middle;dominant-baseline:middle}.sg-lab.is-hole{fill:#6E7890}.sg-lab.is-xs{font-size:26px}.sg-lab.is-side{fill:#6E7890;font-size:34px}</style><defs><path id="ps-m" d="M410.80 864.05A159.79 159.79 0 0 1 96.50 808.62C101.22 770.39 108.78 733.43 118.85 698.09C128.92 662.75 141.49 629.04 156.17 597.22C170.85 565.40 187.65 535.48 206.17 507.66C224.69 479.84 244.92 454.12 266.46 430.63C287.99 407.14 310.84 385.88 334.59 366.92A98.75 98.75 0 0 1 463.53 371.82L574.87 475.54A37.72 37.72 0 0 0 637.34 456.41L649.03 405.66A159.79 159.79 0 0 1 940.15 356.70L940.15 356.70A1095.20 1095.20 0 0 1 1099.63 809.41L1099.63 809.41A159.79 159.79 0 0 1 785.08 863.32L785.08 863.32A61.03 61.03 0 0 0 707.90 818.31L707.90 818.31A98.75 98.75 0 0 1 612.05 796.03L536.60 725.75A61.03 61.03 0 0 0 435.52 756.71L410.80 864.05Z"/><mask id="ps-in" maskUnits="userSpaceOnUse" x="40" y="170" width="1140" height="930"><use href="#ps-m" fill="#fff"/></mask></defs><g class="sg-axes"><line x1="-730.4" y1="1153.3" x2="2329.2" y2="216.1"/><line x1="440.3" y1="2243.9" x2="1158.5" y2="-874.5"/><line x1="1970.1" y1="1775.3" x2="-371.3" y2="-405.9"/></g><g class="sg-star"><polygon points="676.9,284.7 514.3,990.8 1207.1,778.6"/><polygon points="391.7,590.8 921.9,1084.7 1084.5,378.6"/><polygon points="601.2,37.5 338.0,1180.0 1459.0,836.6"/><polygon points="139.8,532.8 997.6,1331.9 1260.8,189.4"/></g><g class="sg-used"><line x1="1970.1" y1="1775.3" x2="-371.3" y2="-405.9"/><line x1="236.5" y1="2196.9" x2="954.7" y2="-921.4"/><line x1="110.5" y1="2167.9" x2="828.7" y2="-950.4"/><line x1="1827.6" y1="1928.3" x2="-513.9" y2="-252.8"/><line x1="-631.3" y1="1476.9" x2="2428.4" y2="539.7"/></g><g class="sg-c sg-under"><circle cx="255.1" cy="828.2" r="159.8"/><circle cx="396.2" cy="444.1" r="98.8"/><circle cx="600.6" cy="447.9" r="37.7"/><circle cx="804.7" cy="441.5" r="159.8"/><circle cx="941.0" cy="828.2" r="159.8"/><circle cx="725.5" cy="876.7" r="61.0"/><circle cx="679.4" cy="723.8" r="98.8"/><circle cx="495.0" cy="770.4" r="61.0"/></g><path d="M877.5 266.9 A1095.2 1095.2 0 0 1 1107.0 918.6" class="sg-side"/><use href="#ps-m" fill="#1749E5"/><g class="sg-c sg-over" mask="url(#ps-in)"><circle cx="255.1" cy="828.2" r="159.8"/><circle cx="396.2" cy="444.1" r="98.8"/><circle cx="600.6" cy="447.9" r="37.7"/><circle cx="804.7" cy="441.5" r="159.8"/><circle cx="941.0" cy="828.2" r="159.8"/><circle cx="725.5" cy="876.7" r="61.0"/><circle cx="679.4" cy="723.8" r="98.8"/><circle cx="495.0" cy="770.4" r="61.0"/></g><g class="sg-cen"><circle class="" cx="255.1" cy="828.2" r="5"/><circle class="" cx="396.2" cy="444.1" r="5"/><circle class="is-hole" cx="600.6" cy="447.9" r="5"/><circle class="" cx="804.7" cy="441.5" r="5"/><circle class="" cx="941.0" cy="828.2" r="5"/><circle class="is-hole" cx="725.5" cy="876.7" r="5"/><circle class="" cx="679.4" cy="723.8" r="5"/><circle class="is-hole" cx="495.0" cy="770.4" r="5"/></g><path d="M1036.0 1825.8 L1026.3 1824.9 L1016.6 1823.9 L1007.0 1822.8 L997.4 1821.6 L987.8 1820.4 L978.3 1819.1 L968.8 1817.7 L959.3 1816.2 L949.9 1814.7 L940.5 1813.1 L931.2 1811.4 L921.9 1809.7 L912.6 1807.9 L903.3 1806.0 L894.1 1804.0 L885.0 1802.0 L875.8 1799.9 L866.7 1797.8 L857.7 1795.5 L848.7 1793.3 L839.7 1790.9 L830.8 1788.5 L821.9 1786.0 L813.1 1783.4 L804.3 1780.8 L795.5 1778.2 L786.8 1775.4 L778.1 1772.6 L769.5 1769.7 L760.9 1766.8 L752.3 1763.8 L743.9 1760.8 L735.4 1757.7 L727.0 1754.5 L718.6 1751.3 L710.3 1748.0 L702.1 1744.6 L693.8 1741.2 L685.7 1737.8 L677.6 1734.2 L669.5 1730.7 L661.5 1727.0 L653.5 1723.3 L645.6 1719.6 L637.7 1715.8 L629.9 1712.0 L622.1 1708.1 L614.3 1704.1 L606.7 1700.1 L599.0 1696.1 L591.5 1691.9 L583.9 1687.8 L576.5 1683.6 L569.1 1679.3 L561.7 1675.0 L554.4 1670.7 L547.1 1666.3 L539.9 1661.8 L532.8 1657.3 L525.7 1652.8 L518.6 1648.2 L511.6 1643.6 L504.7 1638.9 L497.8 1634.2 L491.0 1629.4 L484.2 1624.6 L477.5 1619.8 L470.8 1614.9 L464.2 1610.0 L457.6 1605.0 L451.1 1600.0 L444.7 1594.9 L438.3 1589.8 L432.0 1584.7 L425.7 1579.6 L419.5 1574.4 L413.3 1569.1 L407.2 1563.8 L401.2 1558.5 L395.2 1553.2 L389.3 1547.8 L383.4 1542.4 L377.6 1537.0 L371.8 1531.5 L366.2 1526.0 L360.5 1520.4 L354.9 1514.8 L349.4 1509.2 L343.9 1503.6 L338.5 1497.9 L333.2 1492.2 L327.9 1486.5 L322.7 1480.8 L317.5 1475.0 L312.4 1469.2 L307.3 1463.4 L302.3 1457.5 L297.4 1451.6 L292.5 1445.7 L287.7 1439.8 L283.0 1433.8 L278.3 1427.8 L273.6 1421.8 L269.0 1415.8 L264.5 1409.8 L260.1 1403.7 L255.7 1397.6 L251.3 1391.5 L247.0 1385.4 L242.8 1379.2 L238.7 1373.1 L234.5 1366.9 L230.5 1360.7 L226.5 1354.5 L222.6 1348.3 L218.7 1342.0 L214.9 1335.7 L211.2 1329.5 L207.5 1323.2 L203.9 1316.9 L200.3 1310.5 L196.8 1304.2 L193.3 1297.9 L189.9 1291.5 L186.6 1285.1 L183.3 1278.8 L180.1 1272.4 L177.0 1266.0 L173.9 1259.6 L170.8 1253.1 L167.9 1246.7 L164.9 1240.3 L162.1 1233.8 L159.3 1227.4 L156.5 1220.9 L153.9 1214.5 L151.2 1208.0 L148.7 1201.6 L146.1 1195.1 L143.7 1188.6 L141.3 1182.1 L139.0 1175.6 L136.7 1169.1 L134.5 1162.7 L132.3 1156.2 L130.2 1149.7 L128.1 1143.2 L126.1 1136.7 L124.2 1130.2 L122.3 1123.7 L120.5 1117.2 L118.7 1110.7 L117.0 1104.2 L115.4 1097.7 L113.8 1091.3 L112.2 1084.8 L110.7 1078.3 L109.3 1071.8 L107.9 1065.4 L106.6 1058.9 L105.3 1052.4 L104.1 1046.0 L102.9 1039.5 L101.8 1033.1 L100.8 1026.7 L99.8 1020.3 L98.8 1013.8 L98.0 1007.4 L97.1 1001.0 L96.3 994.6 L95.6 988.3 L94.9 981.9 L94.3 975.5 L93.7 969.2 L93.2 962.9 L92.7 956.5 L92.3 950.2 L92.0 943.9 L91.6 937.6 L91.4 931.4 L91.2 925.1 L91.0 918.8 L90.9 912.6 L90.8 906.4 L90.8 900.2 L90.9 894.0 L90.9 887.8 L91.1 881.7 L91.3 875.5 L91.5 869.4 L91.8 863.3 L92.1 857.2 L92.5 851.1 L92.9 845.1 L93.4 839.0 L93.9 833.0 L94.5 827.0 L95.1 821.0 L95.7 815.1 L96.4 809.2 L97.2 803.2 L98.0 797.3 L98.8 791.5 L99.7 785.6 L100.6 779.8 L101.6 774.0 L102.6 768.2 L103.7 762.4 L104.8 756.7 L105.9 750.9 L107.1 745.2 L108.4 739.6 L109.6 733.9 L111.0 728.3 L112.3 722.7 L113.7 717.1 L115.2 711.6 L116.6 706.0 L118.2 700.5 L119.7 695.0 L121.3 689.6 L123.0 684.2 L124.7 678.8 L126.4 673.4 L128.1 668.1 L129.9 662.7 L131.8 657.5 L133.6 652.2 L135.5 647.0 L137.5 641.8 L139.5 636.6 L141.5 631.4 L143.6 626.3 L145.6 621.2 L147.8 616.2 L149.9 611.1 L152.1 606.1 L154.4 601.2 L156.6 596.2 L158.9 591.3 L161.3 586.4 L163.6 581.6 L166.0 576.8 L168.5 572.0 L170.9 567.2 L173.4 562.5 L175.9 557.8 L178.5 553.2 L181.1 548.5 L183.7 543.9 L186.4 539.4 L189.0 534.8 L191.8 530.3 L194.5 525.9 L197.3 521.4 L200.1 517.0 L202.9 512.7 L205.7 508.3 L208.6 504.0 L211.5 499.8 L214.4 495.5 L217.4 491.3 L220.4 487.2 L223.4 483.0 L226.4 478.9 L229.5 474.9 L232.6 470.8 L235.7 466.9 L238.8 462.9 L242.0 459.0 L245.2 455.1 L248.4 451.2 L251.6 447.4 L254.9 443.6 L258.1 439.9 L261.4 436.2 L264.8 432.5 L268.1 428.9 L271.5 425.2 L274.8 421.7 L278.2 418.1 L281.7 414.6 L285.1 411.2 L288.6 407.8 L292.0 404.4 L295.5 401.0 L299.0 397.7 L302.6 394.4 L306.1 391.2 L309.7 388.0 L313.3 384.8 L316.9 381.6 L320.5 378.5 L324.1 375.5 L327.8 372.5 L331.4 369.5 L335.1 366.5 L338.8 363.6 L342.5 360.7 L346.2 357.9 L349.9 355.1 L353.7 352.3 L357.4 349.6 L361.2 346.9 L365.0 344.2 L368.8 341.6 L372.6 339.0 L376.4 336.5 L380.2 333.9 L384.1 331.5 L387.9 329.0 L391.8 326.6 L395.6 324.3 L399.5 321.9 L403.4 319.6 L407.3 317.4 L411.2 315.2 L415.1 313.0 L419.0 310.8 L423.0 308.7 L426.9 306.7 L430.8 304.6 L434.8 302.6 L438.7 300.7 L442.7 298.7 L446.7 296.8 L450.6 295.0 L454.6 293.2 L458.6 291.4 L462.6 289.7 L466.6 287.9 L470.6 286.3 L474.5 284.6 L478.5 283.0 L482.5 281.5 L486.5 279.9 L490.6 278.4 L494.6 277.0 L498.6 275.6 L502.6 274.2 L506.6 272.8 L510.6 271.5 L514.6 270.2 L518.6 269.0 L522.6 267.8 L526.7 266.6 L530.7 265.5 L534.7 264.4 L538.7 263.3 L542.7 262.3 L546.7 261.3 L550.7 260.3 L554.7 259.4 L558.7 258.5 L562.7 257.6 L566.7 256.8 L570.7 256.0 L574.7 255.2 L578.7 254.5 L582.7 253.8 L586.6 253.1 L590.6 252.5 L594.6 251.9 L598.5 251.3 L602.5 250.8 L606.4 250.3 L610.4 249.8 L614.3 249.4 L618.3 249.0 L622.2 248.7 L626.1 248.3 L630.0 248.0 L633.9 247.8 L637.8 247.5 L641.7 247.3 L645.6 247.1 L649.5 247.0 L653.3 246.9 L657.2 246.8 L661.0 246.8 L664.9 246.7 L668.7 246.7 L672.5 246.8 L676.3 246.9 L680.1 247.0 L683.9 247.1 L687.7 247.3 L691.5 247.5 L695.2 247.7 L699.0 247.9 L702.7 248.2 L706.4 248.5 L710.1 248.9 L713.8 249.2 L717.5 249.6 L721.2 250.1 L724.9 250.5 L728.5 251.0 L732.1 251.5 L735.8 252.0 L739.4 252.6 L743.0 253.2 L746.6 253.8 L750.1 254.5 L753.7 255.1 L757.2 255.8 L760.8 256.6 L764.3 257.3 L767.8 258.1 L771.2 258.9 L774.7 259.7 L778.2 260.6 L781.6 261.5 L785.0 262.4 L788.4 263.3 L791.8 264.3 L795.2 265.2 L798.6 266.3 L801.9 267.3 L805.2 268.3 L808.5 269.4 L811.8 270.5 L815.1 271.6 L818.4 272.8 L821.6 274.0 L824.8 275.2 L828.0 276.4 L831.2 277.6 L834.4 278.9 L837.5 280.2 L840.7 281.5 L843.8 282.8 L846.9 284.2 L850.0 285.5 L853.0 286.9 L856.1 288.3 L859.1 289.8 L862.1 291.2 L865.1 292.7 L868.0 294.2 L871.0 295.7 L873.9 297.2 L876.8 298.8 L879.7 300.4 L882.6 302.0 L885.4 303.6 L888.2 305.2 L891.1 306.9 L893.8 308.5 L896.6 310.2 L899.4 311.9 L902.1 313.6 L904.8 315.4 L907.5 317.1 L910.1 318.9 L912.8 320.7 L915.4 322.5 L918.0 324.3 L920.6 326.2 L923.2 328.0 L925.7 329.9 L928.2 331.8 L930.7 333.7 L933.2 335.6 L935.6 337.5 L938.1 339.5 L940.5 341.5 L942.9 343.4 L945.2 345.4 L947.6 347.4 L949.9 349.4 L952.2 351.5 L954.5 353.5 L956.8 355.6 L959.0 357.7 L961.2 359.7 L963.4 361.8 L965.6 363.9 L967.7 366.1 L969.8 368.2 L971.9 370.3 L974.0 372.5 L976.1 374.7 L978.1 376.9 L980.1 379.0 L982.1 381.2 L984.1 383.5 L986.0 385.7 L988.0 387.9 L989.9 390.1 L991.7 392.4 L993.6 394.7 L995.4 396.9 L997.2 399.2 L999.0 401.5 L1000.8 403.8 L1002.5 406.1 L1004.3 408.4 L1006.0 410.7 L1007.6 413.0 L1009.3 415.4 L1010.9 417.7 L1012.5 420.1 L1014.1 422.4 L1015.7 424.8 L1017.2 427.2 L1018.7 429.5 L1020.2 431.9 L1021.7 434.3 L1023.1 436.7 L1024.5 439.1 L1025.9 441.5 L1027.3 443.9 L1028.7 446.3 L1030.0 448.8 L1031.3 451.2 L1032.6 453.6 L1033.9 456.0 L1035.1 458.5 L1036.3 460.9 L1037.5 463.4 L1038.7 465.8 L1039.9 468.3 L1041.0 470.7 L1042.1 473.2 L1043.2 475.7 L1044.3 478.1 L1045.3 480.6 L1046.3 483.0 L1047.3 485.5 L1048.3 488.0 L1049.2 490.5 L1050.2 492.9 L1051.1 495.4 L1052.0 497.9 L1052.8 500.4 L1053.7 502.9 L1054.5 505.3 L1055.3 507.8 L1056.1 510.3 L1056.8 512.8 L1057.6 515.3 L1058.3 517.7 L1059.0 520.2 L1059.6 522.7 L1060.3 525.2 L1060.9 527.7 L1061.5 530.1 L1062.1 532.6 L1062.7 535.1 L1063.2 537.5 L1063.7 540.0 L1064.2 542.5 L1064.7 545.0 L1065.2 547.4 L1065.6 549.9 L1066.0 552.3 L1066.4 554.8 L1066.8 557.2 L1067.1 559.7 L1067.5 562.1 L1067.8 564.6 L1068.1 567.0 L1068.3 569.5 L1068.6 571.9 L1068.8 574.3 L1069.0 576.7 L1069.2 579.2 L1069.4 581.6 L1069.6 584.0 L1069.7 586.4 L1069.8 588.8 L1069.9 591.2 L1070.0 593.6 L1070.0 596.0 L1070.1 598.3 L1070.1 600.7 L1070.1 603.1 L1070.1 605.5 L1070.0 607.8 L1070.0 610.2 L1069.9 612.5 L1069.8 614.8 L1069.7 617.2 L1069.6 619.5 L1069.4 621.8 L1069.2 624.1 L1069.1 626.4 L1068.9 628.7 L1068.6 631.0 L1068.4 633.3 L1068.1 635.6 L1067.9 637.8 L1067.6 640.1 L1067.3 642.3 L1066.9 644.6 L1066.6 646.8 L1066.2 649.1 L1065.9 651.3 L1065.5 653.5 L1065.1 655.7 L1064.6 657.9 L1064.2 660.1 L1063.7 662.2 L1063.3 664.4 L1062.8 666.5 L1062.3 668.7 L1061.7 670.8 L1061.2 673.0 L1060.6 675.1 L1060.1 677.2 L1059.5 679.3 L1058.9 681.4 L1058.3 683.5 L1057.6 685.5 L1057.0 687.6 L1056.3 689.6 L1055.6 691.7 L1054.9 693.7 L1054.2 695.7 L1053.5 697.7 L1052.8 699.7 L1052.0 701.7 L1051.3 703.7 L1050.5 705.6 L1049.7 707.6 L1048.9 709.5 L1048.1 711.5 L1047.3 713.4 L1046.4 715.3 L1045.6 717.2 L1044.7 719.1 L1043.8 720.9 L1042.9 722.8 L1042.0 724.6 L1041.1 726.5 L1040.2 728.3 L1039.2 730.1 L1038.3 731.9 L1037.3 733.7 L1036.3 735.5 L1035.3 737.3 L1034.3 739.0 L1033.3 740.7 L1032.3 742.5 L1031.2 744.2 L1030.2 745.9 L1029.1 747.6 L1028.0 749.3 L1027.0 750.9 L1025.9 752.6 L1024.8 754.2 L1023.7 755.8 L1022.5 757.5 L1021.4 759.1 L1020.3 760.6 L1019.1 762.2 L1017.9 763.8 L1016.8 765.3 L1015.6 766.9 L1014.4 768.4 L1013.2 769.9 L1012.0 771.4 L1010.8 772.9 L1009.5 774.3 L1008.3 775.8 L1007.1 777.2 L1005.8 778.7 L1004.5 780.1 L1003.3 781.5 L1002.0 782.9 L1000.7 784.2 L999.4 785.6 L998.1 786.9 L996.8 788.3 L995.5 789.6 L994.2 790.9 L992.8 792.2 L991.5 793.5 L990.1 794.7 L988.8 796.0 L987.4 797.2 L986.1 798.4 L984.7 799.6 L983.3 800.8 L981.9 802.0 L980.6 803.2 L979.2 804.3 L977.8 805.5 L976.4 806.6 L974.9 807.7 L973.5 808.8 L972.1 809.9 L970.7 810.9 L969.2 812.0 L967.8 813.0 L966.4 814.1 L964.9 815.1 L963.5 816.1 L962.0 817.1 L960.6 818.0 L959.1 819.0 L957.6 819.9 L956.2 820.9 L954.7 821.8 L953.2 822.7 L951.7 823.6 L950.2 824.4 L948.7 825.3 L947.3 826.1 L945.8 827.0 L944.3 827.8 L942.8 828.6 L941.3 829.4 L939.7 830.1 L938.2 830.9 L936.7 831.6 L935.2 832.4 L933.7 833.1 L932.2 833.8 L930.7 834.5 L929.1 835.2 L927.6 835.8 L926.1 836.5 L924.6 837.1 L923.0 837.7 L921.5 838.3 L920.0 838.9 L918.5 839.5 L916.9 840.1 L915.4 840.6 L913.9 841.2 L912.3 841.7 L910.8 842.2 L909.3 842.7 L907.7 843.2 L906.2 843.7 L904.7 844.1 L903.1 844.6 L901.6 845.0 L900.1 845.4 L898.5 845.8 L897.0 846.2 L895.5 846.6 L893.9 846.9 L892.4 847.3 L890.9 847.6 L889.4 848.0 L887.8 848.3 L886.3 848.6 L884.8 848.9 L883.3 849.1 L881.7 849.4 L880.2 849.6 L878.7 849.9 L877.2 850.1 L875.7 850.3 L874.2 850.5 L872.7 850.7 L871.2 850.9 L869.6 851.0 L868.1 851.2 L866.6 851.3 L865.2 851.4 L863.7 851.6 L862.2 851.7 L860.7 851.7 L859.2 851.8 L857.7 851.9 L856.2 851.9 L854.8 852.0 L853.3 852.0 L851.8 852.0 L850.4 852.0 L848.9 852.0 L847.4 852.0 L846.0 852.0 L844.5 851.9 L843.1 851.9 L841.6 851.8 L840.2 851.7 L838.8 851.6 L837.3 851.5 L835.9 851.4 L834.5 851.3 L833.1 851.2 L831.7 851.0 L830.3 850.9 L828.9 850.7 L827.5 850.5 L826.1 850.3 L824.7 850.1 L823.3 849.9 L821.9 849.7 L820.5 849.5 L819.2 849.2 L817.8 849.0 L816.5 848.7 L815.1 848.5 L813.8 848.2 L812.4 847.9 L811.1 847.6 L809.8 847.3 L808.4 847.0 L807.1 846.6 L805.8 846.3 L804.5 845.9 L803.2 845.6 L801.9 845.2 L800.6 844.8 L799.3 844.4 L798.1 844.0 L796.8 843.6 L795.5 843.2 L794.3 842.8 L793.0 842.4 L791.8 841.9 L790.6 841.5 L789.3 841.0 L788.1 840.5 L786.9 840.1 L785.7 839.6 L784.5 839.1 L783.3 838.6 L782.1 838.1 L780.9 837.6 L779.7 837.0 L778.6 836.5 L777.4 836.0 L776.3 835.4 L775.1 834.9 L774.0 834.3 L772.8 833.7 L771.7 833.1 L770.6 832.5 L769.5 831.9 L768.4 831.3 L767.3 830.7 L766.2 830.1 L765.1 829.5 L764.1 828.9 L763.0 828.2 L761.9 827.6 L760.9 826.9 L759.9 826.3 L758.8 825.6 L757.8 824.9 L756.8 824.2 L755.8 823.5 L754.8 822.9 L753.8 822.2 L752.8 821.5 L751.8 820.7 L750.9 820.0 L749.9 819.3 L749.0 818.6 L748.0 817.8 L747.1 817.1 L746.1 816.4 L745.2 815.6 L744.3 814.8 L743.4 814.1 L742.5 813.3 L741.6 812.5 L740.8 811.8 L739.9 811.0 L739.0 810.2 L738.2 809.4 L737.3 808.6 L736.5 807.8 L735.7 807.0 L734.9 806.2 L734.0 805.4 L733.2 804.5 L732.5 803.7 L731.7 802.9 L730.9 802.1 L730.1 801.2 L729.4 800.4 L728.6 799.5 L727.9 798.7 L727.1 797.8 L726.4 797.0 L725.7 796.1 L725.0 795.2 L724.3 794.4 L723.6 793.5 L722.9 792.6 L722.3 791.8 L721.6 790.9 L720.9 790.0 L720.3 789.1 L719.7 788.2 L719.0 787.3 L718.4 786.4 L717.8 785.5 L717.2 784.6 L716.6 783.7 L716.0 782.8 L715.4 781.9 L714.9 781.0 L714.3 780.1 L713.8 779.2 L713.2 778.2 L712.7 777.3 L712.2 776.4 L711.7 775.5 L711.1 774.6 L710.6 773.6 L710.2 772.7 L709.7 771.8 L709.2 770.8 L708.7 769.9 L708.3 769.0 L707.8 768.0 L707.4 767.1 L707.0 766.2 L706.6 765.2 L706.1 764.3 L705.7 763.3 L705.3 762.4 L705.0 761.5 L704.6 760.5 L704.2 759.6 L703.8 758.6 L703.5 757.7 L703.1 756.7 L702.8 755.8 L702.5 754.8 L702.2 753.9 L701.9 752.9 L701.5 752.0 L701.3 751.0 L701.0 750.1 L700.7 749.1 L700.4 748.2 L700.2 747.3 L699.9 746.3 L699.7 745.4 L699.4 744.4 L699.2 743.5 L699.0 742.5 L698.8 741.6 L698.6 740.6 L698.4 739.7 L698.2 738.7 L698.0 737.8 L697.8 736.9 L697.7 735.9 L697.5 735.0 L697.4 734.0 L697.2 733.1 L697.1 732.2 L697.0 731.2 L696.8 730.3 L696.7 729.4 L696.6 728.4 L696.5 727.5 L696.4 726.6 L696.4 725.7 L696.3 724.7 L696.2 723.8 L696.2 722.9 L696.1 722.0 L696.1 721.1 L696.0 720.1 L696.0 719.2 L696.0 718.3 L696.0 717.4 L696.0 716.5 L696.0 715.6 L696.0 714.7 L696.0 713.8 L696.0 712.9 L696.1 712.0 L696.1 711.1 L696.2 710.2 L696.2 709.3 L696.3 708.5 L696.3 707.6 L696.4 706.7 L696.5 705.8 L696.6 704.9 L696.7 704.1 L696.8 703.2 L696.9 702.3 L697.0 701.5 L697.1 700.6 L697.2 699.8 L697.4 698.9 L697.5 698.1 L697.6 697.2 L697.8 696.4 L698.0 695.5 L698.1 694.7 L698.3 693.9 L698.5 693.0 L698.7 692.2 L698.8 691.4 L699.0 690.6 L699.2 689.8 L699.5 688.9 L699.7 688.1 L699.9 687.3 L700.1 686.5 L700.3 685.7 L700.6 684.9 L700.8 684.1 L701.1 683.4 L701.3 682.6 L701.6 681.8 L701.9 681.0 L702.1 680.3 L702.4 679.5 L702.7 678.7 L703.0 678.0 L703.3 677.2 L703.6 676.5 L703.9 675.7 L704.2 675.0 L704.5 674.3 L704.8 673.5 L705.1 672.8 L705.5 672.1 L705.8 671.4 L706.1 670.6 L706.5 669.9 L706.8 669.2 L707.2 668.5 L707.5 667.8 L707.9 667.1 L708.3 666.5 L708.6 665.8 L709.0 665.1 L709.4 664.4 L709.8 663.8 L710.2 663.1 L710.6 662.4 L711.0 661.8 L711.4 661.1 L711.8 660.5 L712.2 659.8 L712.6 659.2 L713.0 658.6 L713.4 658.0 L713.9 657.3 L714.3 656.7 L714.7 656.1 L715.2 655.5 L715.6 654.9 L716.0 654.3 L716.5 653.7 L716.9 653.1 L717.4 652.6 L717.9 652.0 L718.3 651.4 L718.8 650.8 L719.3 650.3 L719.7 649.7 L720.2 649.2 L720.7 648.6 L721.2 648.1 L721.7 647.6 L722.2 647.0 L722.6 646.5 L723.1 646.0 L723.6 645.5 L724.1 645.0 L724.6 644.5 L725.1 644.0 L725.7 643.5 L726.2 643.0 L726.7 642.5 L727.2 642.0 L727.7 641.6 L728.2 641.1 L728.8 640.7 L729.3 640.2 L729.8 639.7 L730.4 639.3 L730.9 638.9 L731.4 638.4 L732.0 638.0 L732.5 637.6 L733.0 637.2 L733.6 636.8 L734.1 636.3 L734.7 635.9 L735.2 635.6 L735.8 635.2 L736.3 634.8 L736.9 634.4 L737.4 634.0 L738.0 633.7 L738.6 633.3 L739.1 632.9 L739.7 632.6 L740.2 632.2 L740.8 631.9 L741.4 631.6 L741.9 631.2 L742.5 630.9 L743.1 630.6 L743.7 630.3 L744.2 630.0 L744.8 629.6 L745.4 629.3 L746.0 629.1 L746.5 628.8 L747.1 628.5 L747.7 628.2 L748.3 627.9 L748.8 627.7 L749.4 627.4 L750.0 627.1 L750.6 626.9 L751.2 626.6 L751.8 626.4 L752.3 626.2 L752.9 625.9 L753.5 625.7 L754.1 625.5 L754.7 625.3 L755.3 625.1 L755.8 624.9 L756.4 624.7 L757.0 624.5 L757.6 624.3 L758.2 624.1 L758.8 623.9 L759.4 623.7 L759.9 623.6 L760.5 623.4 L761.1 623.3 L761.7 623.1 L762.3 623.0 L762.9 622.8 L763.5 622.7 L764.0 622.5 L764.6 622.4 L765.2 622.3 L765.8 622.2 L766.4 622.1 L767.0 622.0 L767.5 621.8 L768.1 621.8 L768.7 621.7 L769.3 621.6 L769.9 621.5 L770.4 621.4 L771.0 621.3 L771.6 621.3 L772.2 621.2 L772.7 621.1 L773.3 621.1 L773.9 621.0 L774.5 621.0 L775.0 620.9 L775.6 620.9 L776.2 620.9 L776.7 620.8 L777.3 620.8 L777.9 620.8 L778.4 620.8 L779.0 620.8 L779.5 620.8 L780.1 620.8 L780.7 620.8 L781.2 620.8 L781.8 620.8 L782.3 620.8 L782.9 620.8 L783.4 620.9 L784.0 620.9 L784.5 620.9 L785.1 621.0 L785.6 621.0 L786.2 621.1 L786.7 621.1 L787.2 621.2 L787.8 621.2 L788.3 621.3 L788.8 621.4 L789.4 621.4 L789.9 621.5 L790.4 621.6 L791.0 621.7 L791.5 621.8 L792.0 621.9 L792.5 622.0 L793.0 622.1 L793.6 622.2 L794.1 622.3 L794.6 622.4 L795.1 622.5 L795.6 622.6 L796.1 622.8 L796.6 622.9 L797.1 623.0 L797.6 623.1 L798.1 623.3 L798.6 623.4 L799.1 623.6 L799.6 623.7 L800.1 623.9 L800.5 624.0 L801.0 624.2 L801.5 624.4 L802.0 624.5 L802.5 624.7 L802.9 624.9 L803.4 625.0 L803.9 625.2 L804.3 625.4 L804.8 625.6 L805.2 625.8 L805.7 626.0 L806.1 626.2 L806.6 626.4 L807.0 626.6 L807.5 626.8 L807.9 627.0 L808.4 627.2 L808.8 627.4 L809.2 627.6 L809.7 627.8 L810.1 628.1 L810.5 628.3 L811.0 628.5 L811.4 628.7 L811.8 629.0 L812.2 629.2 L812.6 629.5 L813.0 629.7 L813.4 629.9 L813.8 630.2 L814.2 630.4 L814.6 630.7 L815.0 631.0 L815.4 631.2 L815.8 631.5 L816.2 631.7 L816.6 632.0 L816.9 632.3 L817.3 632.5 L817.7 632.8 L818.1 633.1 L818.4 633.4 L818.8 633.6 L819.1 633.9 L819.5 634.2 L819.9 634.5 L820.2 634.8 L820.5 635.1 L820.9 635.4 L821.2 635.7 L821.6 635.9 L821.9 636.2 L822.2 636.5 L822.6 636.8 L822.9 637.2 L823.2 637.5 L823.5 637.8 L823.8 638.1 L824.2 638.4 L824.5 638.7 L824.8 639.0 L825.1 639.3 L825.4 639.6 L825.7 640.0 L826.0 640.3 L826.2 640.6 L826.5 640.9 L826.8 641.3 L827.1 641.6 L827.4 641.9 L827.6 642.2 L827.9 642.6 L828.2 642.9 L828.4 643.2 L828.7 643.6 L828.9 643.9 L829.2 644.2 L829.4 644.6 L829.7 644.9 L829.9 645.3 L830.2 645.6 L830.4 645.9 L830.6 646.3 L830.9 646.6 L831.1 647.0 L831.3 647.3 L831.5 647.7 L831.8 648.0 L832.0 648.4 L832.2 648.7 L832.4 649.1 L832.6 649.4 L832.8 649.8 L833.0 650.1 L833.2 650.5 L833.4 650.8 L833.5 651.2 L833.7 651.5 L833.9 651.9 L834.1 652.3 L834.3 652.6 L834.4 653.0 L834.6 653.3 L834.8 653.7 L834.9 654.0 L835.1 654.4 L835.2 654.8 L835.4 655.1 L835.5 655.5 L835.7 655.8 L835.8 656.2 L835.9 656.6 L836.1 656.9 L836.2 657.3 L836.3 657.7 L836.5 658.0 L836.6 658.4 L836.7 658.7 L836.8 659.1 L836.9 659.5 L837.0 659.8 L837.1 660.2 L837.2 660.6 L837.3 660.9 L837.4 661.3 L837.5 661.6 L837.6 662.0 L837.7 662.4 L837.8 662.7 L837.9 663.1 L837.9 663.4 L838.0 663.8 L838.1 664.2 L838.2 664.5 L838.2 664.9 L838.3 665.2 L838.3 665.6 L838.4 666.0 L838.5 666.3 L838.5 666.7 L838.6 667.0 L838.6 667.4 L838.6 667.7 L838.7 668.1 L838.7 668.4 L838.7 668.8 L838.8 669.2 L838.8 669.5 L838.8 669.9 L838.8 670.2 L838.9 670.6 L838.9 670.9 L838.9 671.3 L838.9 671.6 L838.9 672.0 L838.9 672.3 L838.9 672.7 L838.9 673.0 L838.9 673.3 L838.9 673.7 L838.9 674.0 L838.9 674.4 L838.9 674.7 L838.8 675.0 L838.8 675.4 L838.8 675.7 L838.8 676.1 L838.7 676.4 L838.7 676.7 L838.7 677.1 L838.6 677.4 L838.6 677.7 L838.6 678.1 L838.5 678.4 L838.5 678.7 L838.4 679.0 L838.4 679.4 L838.3 679.7 L838.3 680.0 L838.2 680.3 L838.1 680.7 L838.1 681.0 L838.0 681.3 L837.9 681.6 L837.9 681.9 L837.8 682.2 L837.7 682.6 L837.6 682.9 L837.6 683.2 L837.5 683.5 L837.4 683.8 L837.3 684.1 L837.2 684.4" class="sg-spiral"/><path d="M96.0 843.1 L95.9 841.6 L95.7 840.1 L95.6 838.6 L95.5 837.1 L95.5 835.6 L95.4 834.1 L95.4 832.6 L95.3 831.1 L95.3 829.6 L95.3 828.1 L95.3 826.6 L95.3 825.1 L95.4 823.6 L95.4 822.1 L95.5 820.6 L95.6 819.1 L95.6 817.6 L95.8 816.1 L95.9 814.6 L96.0 813.1 L96.2 811.6 L96.3 810.1 L96.5 808.6 L96.5 808.6 L98.1 796.2 L100.0 783.9 L102.0 771.6 L104.2 759.5 L106.7 747.5 L109.3 735.5 L112.1 723.7 L115.0 712.0 L118.2 700.4 L121.5 688.9 L125.0 677.5 L128.7 666.3 L132.6 655.1 L136.6 644.1 L140.8 633.3 L145.1 622.5 L149.6 611.9 L154.3 601.4 L159.1 591.0 L164.0 580.8 L169.1 570.7 L174.4 560.8 L179.7 550.9 L185.2 541.3 L190.9 531.7 L196.7 522.4 L202.6 513.1 L208.6 504.0 L214.7 495.1 L221.0 486.3 L227.4 477.7 L233.9 469.2 L240.5 460.9 L247.2 452.7 L254.0 444.7 L260.9 436.8 L267.9 429.1 L274.9 421.6 L282.1 414.2 L289.4 406.9 L296.7 399.9 L304.2 392.9 L311.7 386.2 L319.2 379.6 L326.9 373.2 L334.6 366.9 L334.6 366.9 L335.8 366.0 L337.0 365.1 L338.2 364.2 L339.4 363.3 L340.7 362.4 L341.9 361.6 L343.2 360.8 L344.5 360.0 L345.8 359.2 L347.1 358.4 L348.4 357.7 L349.7 357.0 L351.1 356.3 L352.4 355.6 L353.8 354.9 L355.1 354.3 L356.5 353.7" class="sg-run"/><path d="M846.9 287.4 L848.3 287.8 L849.8 288.2 L851.2 288.6 L852.6 289.1 L854.1 289.5 L855.5 290.0 L856.9 290.5 L858.4 291.0 L859.8 291.5 L861.2 292.0 L862.6 292.6 L864.0 293.1 L865.4 293.7 L866.8 294.3 L868.2 294.9 L869.5 295.5 L870.9 296.1 L872.3 296.7 L873.6 297.4 L875.0 298.0 L876.3 298.7 L877.7 299.4 L879.0 300.1 L880.4 300.8 L881.7 301.5 L883.0 302.2 L884.3 303.0 L885.6 303.7 L886.9 304.5 L888.2 305.3 L889.5 306.0 L890.7 306.9 L892.0 307.7 L893.3 308.5 L894.5 309.3 L895.8 310.2 L897.0 311.1 L898.2 311.9 L899.4 312.8 L900.6 313.7 L901.8 314.6 L903.0 315.5 L904.2 316.5 L905.4 317.4 L906.5 318.4 L907.7 319.3 L908.9 320.3 L910.0 321.3 L911.1 322.3 L912.2 323.3 L913.3 324.3 L914.4 325.3" class="sg-run"/><path d="M1065.1 637.2 L1065.5 638.6 L1065.9 640.1 L1066.3 641.5 L1066.7 643.0 L1067.1 644.4 L1067.5 645.9 L1067.9 647.3 L1068.3 648.8 L1068.7 650.2" class="sg-run"/><path d="M770.4 835.4 L769.4 834.3 L768.3 833.2 L767.2 832.2 L766.1 831.1 L765.0 830.1 L763.8 829.2 L762.6 828.2 L761.4 827.3 L760.1 826.5 L758.9 825.6 L757.6 824.8 L756.3 824.0 L755.0 823.3 L753.6 822.6 L752.3 821.9 L750.9 821.2 L749.5 820.6 L748.1 820.0 L746.7 819.5 L745.2 819.0" class="sg-run"/><circle cx="799.4" cy="684.7" r="8" class="sg-eye"/><text x="255.1" y="868.2" class="sg-lab">φ³</text><text x="396.2" y="484.1" class="sg-lab">φ²</text><text x="600.6" y="396.2" class="sg-lab is-hole is-xs">1</text><text x="804.7" y="481.5" class="sg-lab">φ³</text><text x="941.0" y="868.2" class="sg-lab">φ³</text><text x="725.5" y="967.8" class="sg-lab is-hole is-xs">φ</text><text x="679.4" y="763.8" class="sg-lab">φ²</text><text x="495.0" y="861.4" class="sg-lab is-hole is-xs">φ</text><text x="1086.5" y="559.6" class="sg-lab is-side">φ⁷</text></svg>
